Coordinates
version=1
nRows=4
nColumns=63
inDegrees=yes

Units are S.I. units (second, meters, Newtons, ...)
If the header above contains a line with 'inDegrees', this indicates whether rotational values are in degrees (yes) or radians (no).

endheader
time	pelvis_tilt	pelvis_list	pelvis_rotation	pelvis_tx	pelvis_ty	pelvis_tz	hip_flexion_r	hip_adduction_r	hip_rotation_r	knee_angle_r	knee_angle_r_beta	ankle_angle_r	subtalar_angle_r	mtp_angle_r	hip_flexion_l	hip_adduction_l	hip_rotation_l	knee_angle_l	knee_angle_l_beta	ankle_angle_l	subtalar_angle_l	mtp_angle_l	L5_S1_Flex_Ext	L5_S1_Lat_Bending	L5_S1_axial_rotation	L4_L5_Flex_Ext	L4_L5_Lat_Bending	L4_L5_axial_rotation	L3_L4_Flex_Ext	L3_L4_Lat_Bending	L3_L4_axial_rotation	L2_L3_Flex_Ext	L2_L3_Lat_Bending	L2_L3_axial_rotation	L1_L2_Flex_Ext	L1_L2_Lat_Bending	L1_L2_axial_rotation	L1_T12_Flex_Ext	L1_T12_Lat_Bending	L1_T12_axial_rotation	Abs_r3	Abs_r2	Abs_r1	Abs_t1	Abs_t2	neck_flexion	neck_bending	neck_rotation	arm_flex_r	arm_add_r	arm_rot_r	elbow_flex_r	pro_sup_r	wrist_flex_r	wrist_dev_r	arm_flex_l	arm_add_l	arm_rot_l	elbow_flex_l	pro_sup_l	wrist_flex_l	wrist_dev_l
      0.00000000	      1.23855535	     -3.93429791	    103.46892061	      0.27932766	      0.83465370	      0.53600244	     -2.09394817	      0.79143695	     -1.97165195	      4.45027857	      0.07767201	     27.09581779	     -9.87442296	      0.00000000	     -0.82149627	     -0.03804602	     28.27267922	      1.73260434	      0.03023965	     25.88585873	    -16.35238739	      0.00000000	      0.05707075	      0.12150463	     -1.85102139	      0.10598609	      0.16160115	     -1.96671022	      0.09376153	      0.29542635	     -1.96671022	      0.06522616	      0.29542635	     -1.61964371	      0.05299590	      0.24777224	     -1.50395488	      0.03261023	      0.18821067	     -1.38826604	      0.40765065	      1.37448464	    -10.29482565	      0.00000000	      0.00000000	     24.23806316	     -1.67194225	     -2.07735369	     12.32160962	    -12.51449982	     71.44453649	     44.82785493	     58.68871988	      8.35835617	      2.97425635	      3.01377946	    -12.31470122	     44.67383881	     51.43775726	     80.79027830	     15.22603055	      3.93799260
      0.02272727	      1.27877798	     -3.98118047	    103.74857380	      0.27787526	      0.83551063	      0.53669615	     -2.53156392	      0.76690088	     -2.30670686	      3.32134003	      0.05796832	     26.44466552	     -9.51313625	      0.00000000	     -0.62028331	      0.00818995	     28.70053654	      1.79227371	      0.03128108	     25.36718977	    -16.73016524	      0.00000000	      0.06171178	      0.13955372	     -1.90316526	      0.11460495	      0.18560644	     -2.02211309	      0.10138628	      0.33931091	     -2.02211309	      0.07053039	      0.33931091	     -1.66526961	      0.05730556	      0.28457794	     -1.54632178	      0.03526211	      0.21616871	     -1.42737395	      0.44080108	      1.57865957	    -10.58483425	      0.00000000	      0.00000000	     24.06755011	     -1.85411912	     -2.00917277	     12.61824265	    -12.76186648	     72.22819243	     44.78838351	     62.79124458	      8.09409424	      0.37709918	      4.28460837	    -12.25198782	     47.26188912	     49.73920285	     80.68264596	     15.34959249	      1.12843508
      0.04545455	      1.30303426	     -3.99656632	    103.54137366	      0.27728235	      0.83617038	      0.53709476	     -2.79836715	      0.73046729	     -1.46202717	      2.55421720	      0.04457950	     25.89056708	    -10.07306670	      0.00000000	     -0.55134788	      0.04392116	     28.47588582	      1.81410630	      0.03166213	     25.22132844	    -16.51054220	      0.00000000	      0.05578254	      0.15664250	     -1.83627115	      0.10359375	      0.20833453	     -1.95103809	      0.09164513	      0.38086059	     -1.95103809	      0.06375386	      0.38086059	     -1.60673725	      0.05179966	      0.31942540	     -1.49197031	      0.03187414	      0.24263924	     -1.37720336	      0.39844908	      1.77197134	    -10.21278925	      0.00000000	      0.00000000	     24.05926931	     -2.05200603	     -1.98388049	     12.23155502	    -12.82952610	     70.37862902	     44.68718309	     68.46733050	      8.61040413	     -0.32294096	      5.39926895	    -11.84650308	     49.08913465	     48.35018621	     79.66816942	     15.07806437	     -0.62617546
      0.06818182	      1.28570185	     -4.07606808	    103.46886345	      0.27666202	      0.83658288	      0.53732947	     -2.89795189	      0.63071457	     -1.19944948	      2.08791437	      0.03644098	     25.84970237	     -9.91185861	      0.00000000	     -0.44710582	      0.12052391	     28.65047639	      1.82586829	      0.03186741	     25.17781451	    -16.40565183	      0.00000000	      0.06316608	      0.16315375	     -1.84011156	      0.11730572	      0.21699449	     -1.95511854	      0.10377555	      0.39669203	     -1.95511854	      0.07219251	      0.39669203	     -1.61009762	      0.05865602	      0.33270312	     -1.49509065	      0.03609310	      0.25272516	     -1.38008367	      0.45118898	      1.84562784	    -10.23414848	      0.00000000	      0.00000000	     24.12857409	     -2.07765787	     -1.87180704	     12.29042238	    -12.68720760	     70.14495948	     44.26268656	     68.30700274	      8.65173531	     -0.23522828	      5.80711048	    -11.19592333	     48.82361891	     47.47378890	     79.38569282	     14.93500562	     -0.84910853
